<svg width="27" height="40" viewBox="0 0 27 40" fill="none" xmlns="http://www.w3.org/2000/svg">
<path d="M27 26.0708C27 28.4243 26.6035 30.4719 25.8105 32.2136C25.0876 33.8565 24.0388 35.3368 22.7269 36.5657C21.4812 37.7163 20.0099 38.5976 18.4056 39.1542C15.2337 40.2819 11.7679 40.2819 8.59602 39.1542C6.98543 38.5946 5.50631 37.7139 4.24905 36.5657C2.92729 35.3454 1.87685 33.8629 1.1654 32.2136C0.388463 30.4719 0 28.4243 0 26.0708C0 23.7173 0.388463 21.6697 1.1654 19.928C1.87091 18.2881 2.9131 16.8133 4.22498 15.5984C5.47696 14.4635 6.94701 13.5932 8.54626 13.0402C11.8016 11.8941 15.3557 11.9111 18.5998 13.0882C20.2475 13.6831 21.7526 14.6137 23.019 15.8206V1.98252C23.019 1.45674 23.2288 0.952427 23.6021 0.58062C23.9753 0.208814 24.4816 0 25.0095 0C25.5374 0 26.0437 0.208814 26.417 0.58062C26.7903 0.952427 27 1.45674 27 1.98252V26.0708ZM23.019 25.9733C23.019 24.2678 22.7435 22.7927 22.1923 21.5476C21.723 20.4228 21.0171 19.4112 20.1222 18.5811C19.2272 17.7509 18.164 17.1215 17.0042 16.7352C15.8793 16.3497 14.6977 16.1535 13.508 16.1547C12.3024 16.1509 11.1045 16.3469 9.96365 16.7352C8.79685 17.1262 7.72963 17.766 6.83639 18.6098C5.94315 19.4536 5.24536 20.4813 4.79162 21.6212C4.25655 22.8779 3.989 24.3611 3.989 26.0708C3.989 27.7805 4.25655 29.2638 4.79162 30.5204C5.27219 31.7002 6.0007 32.7637 6.92818 33.6397C7.8066 34.4549 8.84975 35.0736 9.98774 35.4545C11.1213 35.8388 12.3106 36.0349 13.508 36.0348C14.6977 36.0362 15.8793 35.84 17.0042 35.4545C18.1332 35.0694 19.1676 34.451 20.0397 33.6397C20.9697 32.7608 21.7056 31.6984 22.2004 30.5204C22.7461 29.2627 23.019 27.7469 23.019 25.9733Z" fill="#DF6E51"/>
</svg>
