<svg width="26" height="26" viewBox="0 0 26 26" fill="none" xmlns="http://www.w3.org/2000/svg">
<path d="M1.44339 18.5787C1.32512 18.6969 1.24556 18.8474 1.21181 19.0096L0.0164568 24.989C-0.0392706 25.2661 0.0486548 25.5519 0.248035 25.7532C0.408716 25.9139 0.625124 26 0.846795 26C0.900665 26 0.956702 25.995 1.01243 25.9832L6.98951 24.7878C7.15514 24.7537 7.3056 24.6745 7.42232 24.5559L20.8 11.1772L14.8229 5.19995L1.44339 18.5787Z" fill="#222529"/>
<path d="M24.6528 1.34602C22.8587 -0.448672 19.9398 -0.448672 18.147 1.34602L15.6001 3.89329L22.1059 10.4L24.6528 7.85239C25.5216 6.98554 26.0001 5.82953 26.0001 4.60004C26.0001 3.37056 25.5216 2.21454 24.6528 1.34602Z" fill="#222529"/>
</svg>
