<svg width="18" height="16" viewBox="0 0 18 16" fill="none" xmlns="http://www.w3.org/2000/svg">
<path d="M6.85547 7.03125C8.79709 7.03125 10.3711 5.45725 10.3711 3.51562C10.3711 1.574 8.79709 0 6.85547 0C4.91384 0 3.33984 1.574 3.33984 3.51562C3.33984 5.45725 4.91384 7.03125 6.85547 7.03125Z" fill="#DF6E51"/>
<path d="M7.2731 10.1953H6.43814L6.00195 13.452L6.85562 14.5191L7.70928 13.452L7.2731 10.1953Z" fill="#DF6E51"/>
<path d="M6.42334 9.14062H7.28769L7.46347 8.08594H6.24756L6.42334 9.14062Z" fill="#DF6E51"/>
<path d="M4.92655 13.5355L5.44338 9.67651L5.17827 8.08594H4.21875C1.8888 8.08594 0 9.97474 0 12.3047V15.3633C0 15.6545 0.236109 15.8906 0.527344 15.8906H6.60203L5.03743 13.9349C4.9475 13.8225 4.90743 13.6782 4.92655 13.5355Z" fill="#DF6E51"/>
<path d="M10.4611 8.19847C10.15 8.12521 9.82569 8.08594 9.49216 8.08594H8.53264L8.26757 9.67651L8.7844 13.5355C8.80352 13.6782 8.76345 13.8225 8.67352 13.9349L7.10889 15.8906H9.84517C9.51336 15.4496 9.31638 14.9017 9.31638 14.3086V10.3711C9.31638 9.4706 9.77029 8.67435 10.4611 8.19847Z" fill="#DF6E51"/>
<path d="M16.418 8.78906H16.1191V7.91016C16.1191 7.23168 15.5672 6.67969 14.8887 6.67969H13.4824C12.8039 6.67969 12.252 7.23168 12.252 7.91016V8.78906H11.9531C11.0794 8.78906 10.3711 9.49736 10.3711 10.3711V10.7227H18V10.3711C18 9.49736 17.2917 8.78906 16.418 8.78906ZM15.0645 8.78906H13.3066V7.91016C13.3066 7.81323 13.3855 7.73438 13.4824 7.73438H14.8887C14.9856 7.73438 15.0645 7.81323 15.0645 7.91016V8.78906Z" fill="#DF6E51"/>
<path d="M10.3711 14.3086C10.3711 15.1823 11.0794 15.8906 11.9531 15.8906H16.418C17.2917 15.8906 18 15.1823 18 14.3086V11.7773H10.3711V14.3086Z" fill="#DF6E51"/>
</svg>
