<svg width="18" height="18" viewBox="0 0 18 18" fill="none" xmlns="http://www.w3.org/2000/svg">
<path d="M6.85547 8.08594C8.79709 8.08594 10.3711 6.51194 10.3711 4.57031C10.3711 2.62869 8.79709 1.05469 6.85547 1.05469C4.91384 1.05469 3.33984 2.62869 3.33984 4.57031C3.33984 6.51194 4.91384 8.08594 6.85547 8.08594Z" fill="#888A98"/>
<path d="M7.2731 11.25H6.43814L6.00195 14.5067L6.85562 15.5738L7.70928 14.5067L7.2731 11.25Z" fill="#888A98"/>
<path d="M6.42285 10.1953H7.2872L7.46298 9.14062H6.24707L6.42285 10.1953Z" fill="#888A98"/>
<path d="M4.92655 14.5902L5.44338 10.7312L5.17827 9.14062H4.21875C1.8888 9.14062 0 11.0294 0 13.3594V16.418C0 16.7092 0.236109 16.9453 0.527344 16.9453H6.60203L5.03743 14.9896C4.9475 14.8772 4.90743 14.7329 4.92655 14.5902Z" fill="#888A98"/>
<path d="M10.4616 9.25316C10.1505 9.17989 9.82618 9.14062 9.49265 9.14062H8.53313L8.26805 10.7312L8.78489 14.5902C8.80401 14.7329 8.76393 14.8772 8.674 14.9896L7.10938 16.9453H9.84566C9.51385 16.5043 9.31687 15.9564 9.31687 15.3633V11.4258C9.31687 10.5253 9.77077 9.72903 10.4616 9.25316Z" fill="#888A98"/>
<path d="M16.418 9.84375H16.1191V8.96484C16.1191 8.28636 15.5672 7.73438 14.8887 7.73438H13.4824C12.8039 7.73438 12.252 8.28636 12.252 8.96484V9.84375H11.9531C11.0794 9.84375 10.3711 10.552 10.3711 11.4258V11.7773H18V11.4258C18 10.552 17.2917 9.84375 16.418 9.84375ZM15.0645 9.84375H13.3066V8.96484C13.3066 8.86792 13.3855 8.78906 13.4824 8.78906H14.8887C14.9856 8.78906 15.0645 8.86792 15.0645 8.96484V9.84375Z" fill="#888A98"/>
<path d="M10.3711 15.3633C10.3711 16.237 11.0794 16.9453 11.9531 16.9453H16.418C17.2917 16.9453 18 16.237 18 15.3633V12.832H10.3711V15.3633Z" fill="#888A98"/>
</svg>
