<svg width="22" height="25" viewBox="0 0 22 25" fill="none" xmlns="http://www.w3.org/2000/svg">
<path d="M17.3258 23.375H4.78217C4.11681 23.375 3.47871 23.1204 3.00823 22.6672C2.53775 22.214 2.27344 21.5993 2.27344 20.9583V4.04167C2.27344 3.40073 2.53775 2.78604 3.00823 2.33283C3.47871 1.87961 4.11681 1.625 4.78217 1.625H11.7891C12.1217 1.62507 12.4407 1.75242 12.6759 1.97904L19.467 8.52096C19.7023 8.74751 19.8345 9.05481 19.8345 9.37525V20.9583C19.8345 21.5993 19.5702 22.214 19.0998 22.6672C18.6293 23.1204 17.9912 23.375 17.3258 23.375Z" stroke="#E1B240" stroke-width="2" stroke-linecap="round" stroke-linejoin="round"/>
<path d="M11.0522 10.084V17.334M11.0522 17.334L7.28906 13.709M11.0522 17.334L14.8153 13.709" stroke="#E1B240" stroke-width="2" stroke-linecap="round" stroke-linejoin="round"/>
</svg>
