<svg width="18" height="4" viewBox="0 0 18 4" fill="none" xmlns="http://www.w3.org/2000/svg">
<path fill-rule="evenodd" clip-rule="evenodd" d="M16.2 0.200073C17.1941 0.200073 18 1.00596 18 2.00007C18 2.99417 17.1941 3.80006 16.2 3.80006C15.2059 3.80006 14.4 2.99417 14.4 2.00007C14.4 1.00596 15.2059 0.200073 16.2 0.200073ZM9.00003 0.200073C9.99413 0.200073 10.8 1.00596 10.8 2.00007C10.8 2.99417 9.99413 3.80006 9.00003 3.80006C8.00593 3.80006 7.20004 2.99417 7.20004 2.00007C7.20004 1.00596 8.00593 0.200073 9.00003 0.200073ZM1.79999 0.200073C2.7941 0.200073 3.59999 1.00596 3.59999 2.00007C3.59999 2.99417 2.7941 3.80006 1.79999 3.80006C0.805891 3.80006 0 2.99417 0 2.00007C0 1.00596 0.805891 0.200073 1.79999 0.200073Z" fill="#888A98"/>
</svg>
