<svg width="18" height="18" viewBox="0 0 18 18" fill="none" xmlns="http://www.w3.org/2000/svg">
<g clip-path="url(#clip0_1_4236)">
<path d="M14.4375 1.5H13.6125C13.365 0.6375 12.57 0 11.625 0C10.68 0 9.885 0.6375 9.6375 1.5H8.8125C8.505 1.5 8.25 1.755 8.25 2.0625V3.1875C8.25 3.9075 8.8425 4.5 9.5625 4.5H13.6875C14.4075 4.5 15 3.9075 15 3.1875V2.0625C15 1.755 14.745 1.5 14.4375 1.5Z" fill="#888A98"/>
<path d="M15.9375 2.25H15.75V3.1875C15.75 4.3275 14.8275 5.25 13.6875 5.25H9.5625C8.4225 5.25 7.5 4.3275 7.5 3.1875V2.25H7.3125C6.1725 2.25 5.25 3.1725 5.25 4.3125V8.8725H5.2575C6.2925 8.955 7.0275 9.15 7.6275 9.3975C7.7325 9.27 7.89 9.1875 8.0625 9.1875H15.1875C15.495 9.1875 15.75 9.4425 15.75 9.75C15.75 10.0575 15.495 10.3125 15.1875 10.3125H9.9525C10.935 10.485 12.1575 10.8225 12.8775 11.625H15.1875C15.315 11.625 15.435 11.67 15.5325 11.745C15.87 11.67 16.1925 11.625 16.5 11.625C17.055 11.625 17.565 11.745 18 11.955V4.3125C18 3.1725 17.0775 2.25 15.9375 2.25ZM15.1875 7.875H8.0625C7.755 7.875 7.5 7.62 7.5 7.3125C7.5 7.005 7.755 6.75 8.0625 6.75H15.1875C15.495 6.75 15.75 7.005 15.75 7.3125C15.75 7.62 15.495 7.875 15.1875 7.875Z" fill="#888A98"/>
<path d="M0.369 9.00151C0.16425 9.00526 0 9.17176 0 9.37651V16.3125C0 16.416 0.084 16.5 0.1875 16.5H1.9665C2.1345 16.5 2.2815 16.389 2.32725 16.2278L3.987 10.3793C4.09425 10.0013 3.89175 9.60376 3.522 9.46951C2.8425 9.22201 1.8 8.97751 0.369 9.00151Z" fill="#888A98"/>
<path d="M16.5002 13.125C15.0002 13.125 12.0002 15.0232 10.5002 15.0232C9.00023 15.0232 7.31273 13.875 7.31273 13.875C7.31273 13.875 9.33323 14.25 10.5002 14.25C11.6672 14.25 12.0002 13.8517 12.0002 13.3125C12.0002 12 9.77123 11.796 8.64323 11.6242C7.53623 11.0077 6.96098 10.5202 5.12723 10.365C5.11673 10.4722 5.10023 10.5787 5.07023 10.6845L3.56348 15.9945C5.26973 16.7707 8.20823 18 9.75023 18C12.0002 18 18.0002 15 18.0002 14.25C18.0002 13.5 17.2502 13.125 16.5002 13.125Z" fill="#888A98"/>
</g>
<defs>
<clipPath id="clip0_1_4236">
<rect width="18" height="18" fill="white"/>
</clipPath>
</defs>
</svg>
