<svg width="18" height="18" viewBox="0 0 18 18" fill="none" xmlns="http://www.w3.org/2000/svg">
<path fill-rule="evenodd" clip-rule="evenodd" d="M8.4375 4.5C8.4375 2.9467 9.69668 1.6875 11.25 1.6875C12.6107 1.6875 13.7456 2.65374 14.0062 3.9375H16.5C16.8106 3.9375 17.0625 4.18934 17.0625 4.5C17.0625 4.81066 16.8106 5.0625 16.5 5.0625H14.0062C13.7456 6.34626 12.6107 7.3125 11.25 7.3125C9.69668 7.3125 8.4375 6.0533 8.4375 4.5ZM1.5 12.9375C1.18934 12.9375 0.9375 13.1894 0.9375 13.5C0.9375 13.8106 1.18934 14.0625 1.5 14.0625H3.24376C3.50435 15.3463 4.63934 16.3125 6 16.3125C7.55333 16.3125 8.8125 15.0533 8.8125 13.5C8.8125 11.9467 7.55333 10.6875 6 10.6875C4.63934 10.6875 3.50435 11.6537 3.24376 12.9375H1.5ZM10.6875 13.5C10.6875 13.1894 10.9394 12.9375 11.25 12.9375H16.5C16.8106 12.9375 17.0625 13.1894 17.0625 13.5C17.0625 13.8106 16.8106 14.0625 16.5 14.0625H11.25C10.9394 14.0625 10.6875 13.8106 10.6875 13.5ZM1.5 3.9375C1.18934 3.9375 0.9375 4.18934 0.9375 4.5C0.9375 4.81066 1.18934 5.0625 1.5 5.0625H6C6.31066 5.0625 6.5625 4.81066 6.5625 4.5C6.5625 4.18934 6.31066 3.9375 6 3.9375H1.5Z" fill="#888A98"/>
</svg>
