<svg width="18" height="18" viewBox="0 0 18 18" fill="none" xmlns="http://www.w3.org/2000/svg">
<path d="M10.7371 8.90578C13.1924 8.90578 15.1896 6.9082 15.1896 4.45289C15.1896 1.99758 13.1924 0 10.7371 0C8.28176 0 6.28418 1.99758 6.28418 4.45289C6.28418 6.9082 8.28176 8.90578 10.7371 8.90578ZM10.2097 1.83551V1.71457C10.2097 1.42313 10.4456 1.18723 10.7371 1.18723C11.0282 1.18723 11.2644 1.42313 11.2644 1.71457V1.83621C11.892 1.97086 12.3641 2.52984 12.3641 3.19711C12.3641 3.4882 12.1279 3.72445 11.8368 3.72445C11.5453 3.72445 11.3094 3.4882 11.3094 3.19711C11.3094 3.01113 11.1579 2.85961 10.9719 2.85961H10.4991C10.3131 2.85961 10.1616 3.01113 10.1616 3.19711C10.1616 3.30363 10.2125 3.40488 10.2983 3.46816L10.7371 3.79301L11.803 4.58191C12.1532 4.84102 12.3641 5.25551 12.3669 5.69145V5.69637C12.3694 6.06832 12.227 6.41918 11.9654 6.68391C11.7714 6.88043 11.5288 7.01227 11.2644 7.06781V7.19121C11.2644 7.48266 11.0282 7.71855 10.7371 7.71855C10.4456 7.71855 10.2097 7.48266 10.2097 7.19121V7.06957C9.95238 7.01473 9.71578 6.88816 9.52453 6.69902C9.25981 6.43781 9.11285 6.08906 9.11074 5.71711C9.10898 5.42602 9.34348 5.18836 9.63457 5.1866H9.63809C9.92777 5.1866 10.1637 5.42074 10.1654 5.71078C10.1661 5.89279 10.3126 6.04617 10.5047 6.04617C10.7961 6.04441 10.6875 6.04505 10.9768 6.04336C11.164 6.04188 11.3137 5.88997 11.3122 5.7034V5.69848C11.3115 5.59301 11.2605 5.49246 11.1755 5.42953L10.7371 5.10504L9.67078 4.31613C9.31781 4.05457 9.10688 3.63621 9.10688 3.19711C9.10688 2.52844 9.58043 1.9691 10.2097 1.83551Z" fill="#888A98"/>
<path d="M3.52249 11.4396C3.38732 11.2053 3.08705 11.1237 2.85126 11.2598L0.3707 12.6917C0.135822 12.8276 0.0552434 13.128 0.190841 13.3632L2.7261 17.7543C2.8618 17.9891 3.16204 18.0698 3.39734 17.9342L5.87789 16.5019C6.11312 16.3663 6.19338 16.0659 6.05775 15.8307L3.52249 11.4396Z" fill="#888A98"/>
<path d="M17.7359 10.5631C17.4972 10.2316 17.0352 10.1567 16.7041 10.3954C15.6993 11.1193 13.7699 12.5093 13.6166 12.6201C13.546 12.6802 13.4718 12.7347 13.3945 12.7829C13.0911 12.9738 12.7391 13.0757 12.3718 13.0757H9.84578C9.55469 13.0757 9.31844 12.8398 9.31844 12.5484C9.31844 12.2566 9.55504 12.021 9.84578 12.021H12.5472C12.9441 12.021 13.2619 11.6906 13.2454 11.2929C13.2299 10.9157 12.9079 10.6232 12.5303 10.6232H10.474C10.3348 10.4759 10.1822 10.3409 10.0187 10.2203C9.4566 9.80583 8.76191 9.56079 8.00992 9.56079C6.67293 9.56079 5.34262 10.4031 4.79102 11.5274L6.9482 15.2635H10.9947C11.7892 15.2635 12.5718 15.0603 13.2605 14.6641C13.4992 14.527 13.7548 14.3621 14.0318 14.1631C15.1927 13.3292 17.5661 11.5967 17.5679 11.5956C17.8997 11.3573 17.975 10.8946 17.7359 10.5631Z" fill="#888A98"/>
</svg>
