<svg width="96" height="102" viewBox="0 0 96 102" fill="none" xmlns="http://www.w3.org/2000/svg">
<path d="M89.1974 102C90.1229 98.6089 90.8422 95.6862 91.2113 93.6174C91.3254 92.9795 91.3367 92.3269 91.2449 91.6852C89.8639 81.6877 64.9192 73.2369 61.7208 72.1927L60.9488 63.4882L29.55 60.0483L25.5747 71.1827L14.306 75.4813C13.8981 75.6346 13.5101 75.8378 13.1504 76.0863C12.2052 76.7357 11.4782 77.6643 11.0675 78.7469C10.6569 79.8295 10.5822 81.0142 10.8536 82.1414L15.6535 102H89.1976L89.1974 102Z" fill="#E1B240"/>
<path d="M24.6774 102H0C0.884021 96.5573 1.67574 91.7434 2.19051 88.6812C4.0749 77.5366 12.2926 76.5864 13.5796 76.5096C13.6817 76.5 13.7448 76.5 13.7497 76.5H18.9416L24.6774 102Z" fill="#E1B240"/>
<path d="M89.3998 102H95.4194C95.127 98.2833 93.7615 94.7285 91.4861 91.7603C90.3447 90.2655 88.8719 89.0507 87.1815 88.2099L86.7271 88.0161L81.4355 102H89.3998Z" fill="#E1B240"/>
<path d="M44.0082 55.1128C56.5014 55.1128 66.6291 44.985 66.6291 32.4918C66.6291 19.9986 56.5014 9.87085 44.0082 9.87085C31.515 9.87085 21.3872 19.9986 21.3872 32.4918C21.3872 44.985 31.515 55.1128 44.0082 55.1128Z" fill="#A0616A"/>
<path d="M28.9849 21.3768C31.3351 24.167 35.3115 24.9539 38.9802 25.274C47.5574 25.7494 56.1591 25.0449 64.5458 23.1801C65.0688 28.2329 63.6494 33.6815 66.6151 37.8387C68.0058 32.8062 68.8144 27.6299 69.025 22.4118C69.2462 20.1731 68.9549 17.9133 68.1734 15.8046C67.7553 14.7479 67.0503 13.8301 66.1381 13.1555C65.226 12.4809 64.1435 12.0765 63.0137 11.9884C64.7051 10.7015 66.6862 9.85203 68.7822 9.51512L61.5742 5.88101L63.4253 3.97441L50.3754 3.17323L54.1553 0.764442C48.4643 -0.0195738 42.7069 -0.201161 36.9781 0.222633C34.3019 0.223589 31.6765 0.955763 29.3838 2.34058C27.2293 3.88671 25.984 6.95877 27.3219 9.22815C25.6473 9.50406 24.0706 10.2043 22.7412 11.2626C21.4119 12.3209 20.3738 13.7021 19.7253 15.2755C18.9052 17.7765 18.7073 20.4408 19.1487 23.0362C19.6402 27.2001 20.6047 31.294 22.0233 35.2381" fill="#2F2E41"/>
</svg>
