<svg width="18" height="18" viewBox="0 0 18 18" fill="none" xmlns="http://www.w3.org/2000/svg">
<path d="M15.4018 9.60889H14.0098C14.1517 9.99736 14.2292 10.4166 14.2292 10.8536V16.1147C14.2292 16.2969 14.1975 16.4718 14.1398 16.6344H16.4411C17.3008 16.6344 18.0002 15.935 18.0002 15.0753V12.2073C18.0002 10.7745 16.8346 9.60889 15.4018 9.60889Z" fill="#888A98"/>
<path d="M3.77104 10.8537C3.77104 10.4167 3.84856 9.99749 3.99045 9.60901H2.5984C1.16564 9.60901 0 10.7747 0 12.2074V15.0755C0 15.9351 0.699365 16.6345 1.55904 16.6345H3.86044C3.80275 16.4718 3.77104 16.297 3.77104 16.1148V10.8537Z" fill="#888A98"/>
<path d="M10.5914 8.25525H7.40895C5.97619 8.25525 4.81055 9.42089 4.81055 10.8537V16.1148C4.81055 16.4018 5.04321 16.6345 5.33023 16.6345H12.6701C12.9571 16.6345 13.1898 16.4018 13.1898 16.1148V10.8537C13.1898 9.42089 12.0241 8.25525 10.5914 8.25525Z" fill="#888A98"/>
<path d="M8.9999 1.36548C7.27682 1.36548 5.875 2.7673 5.875 4.49042C5.875 5.65919 6.52008 6.67995 7.47275 7.21588C7.92461 7.47006 8.44556 7.61532 8.9999 7.61532C9.55425 7.61532 10.0752 7.47006 10.5271 7.21588C11.4798 6.67995 12.1248 5.65915 12.1248 4.49042C12.1248 2.76734 10.723 1.36548 8.9999 1.36548Z" fill="#888A98"/>
<path d="M3.5128 4.27808C2.22414 4.27808 1.17578 5.32644 1.17578 6.61509C1.17578 7.90375 2.22414 8.95211 3.5128 8.95211C3.83968 8.95211 4.15096 8.8844 4.43372 8.76269C4.9226 8.55221 5.3257 8.17962 5.57514 7.71292C5.75022 7.38537 5.84981 7.01169 5.84981 6.61509C5.84981 5.32647 4.80145 4.27808 3.5128 4.27808Z" fill="#888A98"/>
<path d="M14.4874 4.27808C13.1988 4.27808 12.1504 5.32644 12.1504 6.61509C12.1504 7.01173 12.25 7.3854 12.4251 7.71292C12.6745 8.17965 13.0776 8.55224 13.5665 8.76269C13.8492 8.8844 14.1605 8.95211 14.4874 8.95211C15.7761 8.95211 16.8244 7.90375 16.8244 6.61509C16.8244 5.32644 15.7761 4.27808 14.4874 4.27808Z" fill="#888A98"/>
</svg>
